#N canvas 0 50 450 300 10;
#X obj 93 114 udpreceive;
#X obj 93 135 unpackOSC;
#X obj 93 65 f \$1;
#X msg 93 89 port \$1;
#X obj 93 42 loadbang;
#X obj 93 156 s oscc;
#X connect 0 0 1 0;
#X connect 1 0 5 0;
#X connect 2 0 3 0;
#X connect 3 0 0 0;
#X connect 4 0 2 0;
