#N canvas 940 557 450 300 10;
#X obj 93 188 outlet;
#X msg 167 107 set /\$1;
#X obj 167 63 loadbang;
#X obj 93 156 routeOSC /xxx;
#X obj 93 83 r oscc;
#X obj 167 84 symbol \$1;
#X connect 1 0 3 0;
#X connect 2 0 5 0;
#X connect 3 0 0 0;
#X connect 4 0 3 0;
#X connect 5 0 1 0;
