#N canvas 113 658 769 617 10;
#X obj 39 94 * 12;
#X obj 38 119 +;
#X obj 93 157 * 10;
#X obj 39 71 unpack f f f f;
#X obj 138 157 * 10;
#X obj 93 224 vline~;
#X obj 93 184 pack f f;
#X msg 93 204 1 \$1 \, 0 \$2 \$2;
#X obj 92 251 outlet~;
#X obj 39 48 inlet;
#X text 37 18 octave;
#X text 81 18 note;
#X text 110 18 A;
#X text 124 18 R;
#X obj 38 252 outlet;
#X text 17 272 midi note;
#X obj 38 140 + 12;
#X text 92 272 envelope;
#X connect 0 0 1 0;
#X connect 1 0 16 0;
#X connect 2 0 6 0;
#X connect 3 0 0 0;
#X connect 3 1 1 1;
#X connect 3 2 2 0;
#X connect 3 3 4 0;
#X connect 4 0 6 1;
#X connect 5 0 8 0;
#X connect 6 0 7 0;
#X connect 7 0 5 0;
#X connect 9 0 3 0;
#X connect 16 0 14 0;
