#N canvas 282 309 845 878 10;
#X obj 102 157 * 12;
#X obj 102 180 +;
#X obj 102 260 osc~;
#X obj 156 220 * 10;
#X obj 102 134 unpack f f f f;
#X obj 190 220 * 10;
#X obj 118 345 vline~;
#X obj 118 305 pack f f;
#X msg 118 325 1 \$1 \, 0 \$2 \$2;
#X obj 103 368 *~;
#X obj 103 389 outlet~;
#X obj 102 111 inlet;
#X text 258 151 octave;
#X text 302 151 note;
#X text 331 151 A;
#X text 345 151 R;
#X text 291 177 note: 0-b;
#X obj 102 220 mtof;
#X connect 0 0 1 0;
#X connect 1 0 17 0;
#X connect 2 0 9 0;
#X connect 3 0 7 0;
#X connect 4 0 0 0;
#X connect 4 1 1 1;
#X connect 4 2 3 0;
#X connect 4 3 5 0;
#X connect 5 0 7 1;
#X connect 6 0 9 1;
#X connect 7 0 8 0;
#X connect 8 0 6 0;
#X connect 9 0 10 0;
#X connect 11 0 4 0;
#X connect 17 0 2 0;
