#N canvas 0 50 1222 964 10;
#X obj 303 115 * 12;
#X obj 303 138 +;
#X floatatom 303 159 5 0 0 0 - - -;
#X obj 303 241 osc~;
#X obj 303 92 unpack f f f f;
#X obj 319 303 vline~;
#X obj 319 263 pack f f;
#X obj 304 326 *~;
#X text 488 53 IVORY;
#X obj 240 304 * 2;
#X obj 240 366 osc~;
#X obj 304 540 *~ 0.5;
#X obj 434 276 vline~;
#X obj 434 236 pack f f;
#X msg 434 256 1 \$1 \, 0 \$2 \$2;
#X obj 240 387 *~ 0.5;
#X obj 240 410 *~;
#X obj 431 181 * 2;
#X obj 304 561 outlet~;
#X obj 303 67 inlet;
#X text 464 106 octave - note - A - R;
#X msg 319 283 1 \$1 \, 0 \$2 \$1;
#X obj 391 178 * 20;
#X obj 357 178 * 20;
#X msg 240 325 \$1 50;
#X obj 240 346 vline~;
#X obj 303 219 vline~;
#X msg 303 198 \$1 30;
#X obj 303 178 mtof;
#X connect 0 0 1 0;
#X connect 1 0 2 0;
#X connect 2 0 28 0;
#X connect 3 0 7 0;
#X connect 4 0 0 0;
#X connect 4 1 1 1;
#X connect 4 2 23 0;
#X connect 4 3 17 0;
#X connect 4 3 22 0;
#X connect 5 0 7 1;
#X connect 6 0 21 0;
#X connect 7 0 11 0;
#X connect 9 0 24 0;
#X connect 10 0 15 0;
#X connect 11 0 18 0;
#X connect 12 0 16 1;
#X connect 13 0 14 0;
#X connect 14 0 12 0;
#X connect 15 0 16 0;
#X connect 16 0 11 0;
#X connect 17 0 13 1;
#X connect 19 0 4 0;
#X connect 21 0 5 0;
#X connect 22 0 6 1;
#X connect 23 0 6 0;
#X connect 23 0 13 0;
#X connect 24 0 25 0;
#X connect 25 0 10 0;
#X connect 26 0 3 0;
#X connect 27 0 26 0;
#X connect 28 0 9 0;
#X connect 28 0 27 0;
