#N canvas 428 76 1210 674 10;
#X obj 283 147 saltIvory;
#X obj 167 96 saltGrain;
#X obj 122 177 osc~;
#X obj 184 188 osc~;
#X obj 122 270 *~;
#X obj 184 209 *~;
#X obj 184 146 + 7;
#X obj 122 342 throw~ L;
#X obj 283 217 throw~ R;
#X obj 432 119 bng 15 250 50 0 empty empty empty 17 7 0 10 -262144
-1 -1;
#X obj 432 160 vline~;
#X obj 418 191 osc~ 50;
#X obj 418 212 *~;
#X obj 417 265 throw~ R;
#X msg 432 139 0 2 \, 1 5 2 \, 0 400 7;
#X obj 418 233 *~ 0;
#X obj 464 215 tgl 15 0 empty empty empty 17 7 0 10 -262144 -1 -1 0
1;
#X obj 284 186 *~ 0;
#X obj 330 168 tgl 15 0 empty empty empty 17 7 0 10 -262144 -1 -1 1
1;
#X obj 122 309 *~ 0;
#X obj 168 291 tgl 15 0 empty empty empty 17 7 0 10 -262144 -1 -1 1
1;
#X msg 764 96 \; pd dsp \$1;
#X obj 764 34 loadbang;
#X obj 781 55 s lb;
#X msg 764 74 1;
#X obj 834 39 osc-boot 9000;
#X obj 167 57 oscc a;
#X obj 283 114 oscc b;
#X obj 432 84 oscc k;
#X obj 855 108 catch~ L;
#X obj 906 191 catch~ R;
#X obj 857 305 dac~;
#X obj 891 133 catch~ mono;
#X obj 857 254 *~ 1;
#X obj 878 282 *~ 1;
#X obj 661 141 tgl 15 0 onoff empty empty 17 7 0 10 -262144 -1 -1 1
1;
#X obj 661 71 loadbang;
#X msg 661 92 1;
#X obj 659 157 vsl 20 140 0 1 0 0 mainvol empty empty 0 -9 0 10 -262144
-1 -1 8100 1;
#X obj 856 205 *~;
#X obj 877 227 *~;
#X obj 612 115 loadbang;
#X msg 612 136 0;
#X obj 980 152 r mainvol;
#X obj 905 245 r onoff;
#X obj 122 156 mtof;
#X obj 184 167 mtof;
#X msg 980 181 \$1 50;
#X obj 980 202 vline~;
#X text 483 215 ON/off;
#X text 346 168 ON/off;
#X text 188 291 ON/off;
#X text 684 140 ON/off;
#X text 684 128 MASTER;
#X connect 0 0 17 0;
#X connect 1 0 6 0;
#X connect 1 0 45 0;
#X connect 1 1 5 1;
#X connect 2 0 4 0;
#X connect 3 0 5 0;
#X connect 4 0 19 0;
#X connect 5 0 4 1;
#X connect 6 0 46 0;
#X connect 9 0 14 0;
#X connect 10 0 12 1;
#X connect 11 0 12 0;
#X connect 12 0 15 0;
#X connect 14 0 10 0;
#X connect 15 0 13 0;
#X connect 16 0 15 1;
#X connect 17 0 8 0;
#X connect 18 0 17 1;
#X connect 19 0 7 0;
#X connect 20 0 19 1;
#X connect 22 0 23 0;
#X connect 22 0 24 0;
#X connect 24 0 21 0;
#X connect 26 0 1 0;
#X connect 27 0 0 0;
#X connect 28 0 9 0;
#X connect 29 0 39 0;
#X connect 30 0 40 0;
#X connect 32 0 39 0;
#X connect 32 0 40 0;
#X connect 33 0 31 0;
#X connect 34 0 31 1;
#X connect 36 0 37 0;
#X connect 37 0 35 0;
#X connect 39 0 33 0;
#X connect 40 0 34 0;
#X connect 41 0 42 0;
#X connect 42 0 38 0;
#X connect 43 0 47 0;
#X connect 44 0 33 1;
#X connect 44 0 34 1;
#X connect 45 0 2 0;
#X connect 46 0 3 0;
#X connect 47 0 48 0;
#X connect 48 0 39 1;
#X connect 48 0 40 1;
